<?xml version="1.0" encoding="UTF-8" standalone="no"?>
<!-- Created with Inkscape (http://www.inkscape.org/) -->

<svg
   width="308.88696mm"
   height="308.88693mm"
   viewBox="0 0 308.88696 308.88693"
   version="1.1"
   id="svg1"
   xml:space="preserve"
   xmlns="http://www.w3.org/2000/svg"
   xmlns:svg="http://www.w3.org/2000/svg"><defs
     id="defs1" /><g
     id="layer1"
     transform="translate(-1239.9634,-438.467)"><path
       id="rect1"
       style="fill:#23272f;stroke-width:0.264583"
       d="m 1277.3533,438.46701 h 234.1073 c 20.714,0 37.3898,16.67586 37.3898,37.38982 v 234.1073 c 0,20.71395 -16.6758,37.38981 -37.3898,37.38981 h -234.1073 c -20.7139,0 -37.3898,-16.67586 -37.3898,-37.38981 v -234.1073 c 0,-20.71396 16.6759,-37.38982 37.3898,-37.38982 z" /><g
       id="g4"
       transform="translate(10.549059,-23.220973)"
       style="fill:#ffffff"><g
         id="g3"
         transform="matrix(0.74969117,0,0,0.74969117,373.15978,138.52213)"
         style="fill:#ffffff;fill-opacity:1"><path
           style="font-weight:bold;font-size:163.53px;font-family:'Eudoxus Sans';-inkscape-font-specification:'Eudoxus Sans';fill:#ffffff;stroke-width:3.40687"
           d="m 1367.0416,597.87047 h 21.2589 l 45.6249,61.97787 h -10.1389 l 44.6437,-61.97787 h 21.2589 v 121.82985 h -22.4036 v -96.4827 l 8.6671,2.12589 -46.279,61.65081 h -2.6165 l -45.1343,-61.65081 7.3589,-2.12589 v 96.4827 h -22.2401 z"
           id="text2"
           aria-label="M" /><path
           style="font-weight:bold;font-size:220.188px;font-family:'Eudoxus Sans';-inkscape-font-specification:'Eudoxus Sans';fill:#ffffff;stroke-width:4.58724"
           d="m 1261.8833,645.82722 -55.2671,-91.37802 h 34.1291 l 42.2761,71.34091 h -12.1103 l 42.0559,-71.34091 h 34.1291 l -55.047,91.15783 v 72.88223 h -30.1658 z"
           id="text2-5"
           aria-label="Y" /></g></g></g></svg>
